<svg xmlns="http://www.w3.org/2000/svg" version="1.1" xmlns:xlink="http://www.w3.org/1999/xlink" xmlns:svgjs="http://svgjs.dev/svgjs" width="2000" height="575" viewBox="0 0 2000 575"><g transform="matrix(1,0,0,1,-1.2121212121212466,0.0861710033439067)"><svg viewBox="0 0 396 114" data-background-color="#fcfcfc" preserveAspectRatio="xMidYMid meet" height="575" width="2000" xmlns="http://www.w3.org/2000/svg" xmlns:xlink="http://www.w3.org/1999/xlink"><defs></defs><g id="tight-bounds" transform="matrix(1,0,0,1,0.2400000000000091,-0.017084338054274895)"><svg viewBox="0 0 395.52 114.03416867610856" height="114.03416867610856" width="395.52"><g><svg viewBox="0 0 635.0180940637661 183.08495259619863" height="114.03416867610856" width="395.52"><g><rect width="9.9317452713984" height="183.08495259619863" x="203.5670156211676" y="0" fill="#ffffff" opacity="1" stroke-width="0" stroke="transparent" fill-opacity="1" class="rect-cb-0" data-fill-palette-color="primary" rx="1%" id="cb-0" data-palette-color="#ffffff"></rect></g><g transform="matrix(1,0,0,1,239.498094063766,0.45543520546317495)"><svg viewBox="0 0 395.52 182.17408218527228" height="182.17408218527228" width="395.52"><g><svg viewBox="0 0 395.52 182.17408218527228" height="182.17408218527228" width="395.52"><g><svg viewBox="0 0 395.52 119.56838399999998" height="119.56838399999998" width="395.52"><g transform="matrix(1,0,0,1,0,0)"><svg width="395.52" viewBox="3.6899999999999906 -35.010000000000005 125.72999999999999 35.010000000000005" height="119.56838399999998" data-palette-color="#ffffff"><svg></svg><g class="undefined-text-0" data-fill-palette-color="primary" id="text-0"><path d="M38.67-27.29v4.05c0 1.447-0.18 2.74-0.54 3.88-0.353 1.14-0.837 2.143-1.45 3.01-0.607 0.873-1.31 1.62-2.11 2.24-0.8 0.62-1.633 1.127-2.5 1.52-0.873 0.4-1.753 0.69-2.64 0.87-0.887 0.18-1.72 0.27-2.5 0.27v0l13.26 11.45h-9.82l-13.23-11.45h-4.57v-6.35h14.36c0.8-0.067 1.527-0.233 2.18-0.5 0.66-0.267 1.23-0.627 1.71-1.08 0.48-0.46 0.85-1.01 1.11-1.65 0.26-0.647 0.39-1.383 0.39-2.21v0-4.01c0-0.353-0.043-0.623-0.13-0.81-0.087-0.187-0.2-0.327-0.34-0.42-0.14-0.087-0.287-0.14-0.44-0.16-0.153-0.013-0.297-0.02-0.43-0.02v0h-20.95v28.66h-6.34v-31.81c0-0.44 0.08-0.857 0.24-1.25 0.16-0.387 0.383-0.727 0.67-1.02 0.287-0.293 0.627-0.523 1.02-0.69 0.387-0.16 0.807-0.24 1.26-0.24v0h24.1c1.42 0 2.617 0.257 3.59 0.77 0.98 0.513 1.773 1.157 2.38 1.93 0.613 0.773 1.053 1.607 1.32 2.5 0.267 0.893 0.4 1.733 0.4 2.52zM51.44-35.01v35.01h-6.35v-35.01zM92.5-10.3v0c0 1.253-0.157 2.38-0.47 3.38-0.32 1-0.74 1.883-1.26 2.65-0.52 0.76-1.13 1.41-1.83 1.95-0.7 0.54-1.423 0.98-2.17 1.32-0.753 0.34-1.517 0.593-2.29 0.76-0.767 0.16-1.493 0.24-2.18 0.24v0h-24.49v-6.35h24.49c1.22 0 2.167-0.357 2.84-1.07 0.68-0.72 1.02-1.68 1.02-2.88v0c0-0.587-0.09-1.123-0.27-1.61-0.18-0.493-0.437-0.917-0.77-1.27-0.333-0.36-0.74-0.637-1.22-0.83-0.48-0.2-1.013-0.3-1.6-0.3v0h-14.6c-1.027 0-2.133-0.183-3.32-0.55-1.187-0.367-2.29-0.957-3.31-1.77-1.013-0.813-1.86-1.877-2.54-3.19-0.673-1.32-1.01-2.933-1.01-4.84v0c0-1.9 0.337-3.507 1.01-4.82 0.68-1.313 1.527-2.38 2.54-3.2 1.02-0.82 2.123-1.413 3.31-1.78 1.187-0.367 2.293-0.55 3.32-0.55v0h21.61v6.35h-21.61c-1.207 0-2.147 0.367-2.82 1.1-0.673 0.733-1.01 1.7-1.01 2.9v0c0 1.22 0.337 2.183 1.01 2.89 0.673 0.713 1.613 1.07 2.82 1.07v0h14.6 0.05c0.68 0.013 1.403 0.107 2.17 0.28 0.767 0.167 1.527 0.43 2.28 0.79 0.76 0.36 1.48 0.813 2.16 1.36 0.687 0.54 1.293 1.193 1.82 1.96 0.533 0.767 0.953 1.647 1.26 2.64 0.307 0.993 0.46 2.117 0.46 3.37zM126.56-20.7v6.39h-20.04v-6.39zM129.42-6.35v6.35h-22.9c-0.88 0-1.84-0.153-2.88-0.46-1.04-0.313-2.007-0.823-2.9-1.53-0.887-0.707-1.627-1.627-2.22-2.76-0.593-1.133-0.89-2.52-0.89-4.16v0-22.9c0-0.44 0.083-0.857 0.25-1.25 0.16-0.387 0.383-0.727 0.67-1.02 0.28-0.293 0.617-0.523 1.01-0.69 0.393-0.16 0.817-0.24 1.27-0.24v0h28.59v6.35h-25.44v19.75c0 0.827 0.22 1.46 0.66 1.9 0.44 0.44 1.083 0.66 1.93 0.66v0z" data-fill-palette-color="primary" fill="#ffffff" opacity="1"></path></g></svg></g></svg></g><g transform="matrix(1,0,0,1,0,145.56771717119997)"><svg viewBox="0 0 375.74399999999997 36.6063650140723" height="36.6063650140723" width="375.74399999999997"><g transform="matrix(1,0,0,1,0,0)"><svg width="375.74399999999997" viewBox="4.95 -35 461.86 45" height="36.6063650140723" data-palette-color="#08c076"><path d="M9.75 0L9.75 0 4.95 0 4.95-35 9.75-35Q16.95-35 21.95-29.7 26.95-24.4 26.95-17.5 26.95-10.6 21.95-5.3 16.95 0 9.75 0ZM6.45-1.5L9.75-1.5Q16.3-1.5 20.88-6.33 25.45-11.15 25.45-17.5 25.45-23.85 20.88-28.68 16.3-33.5 9.75-33.5L9.75-33.5 6.45-33.5 6.45-1.5ZM49-27.48Q47.3-28 44.8-28 42.3-28 40.6-27.48 38.9-26.95 37.47-25.53 36.05-24.1 35.35-21.38 34.65-18.65 34.65-14.5 34.65-10.35 35.35-7.63 36.05-4.9 37.47-3.48 38.9-2.05 40.6-1.53 42.3-1 44.8-1 47.3-1 49-1.53 50.7-2.05 52.12-3.48 53.55-4.9 54.25-7.63 54.95-10.35 54.95-14.5 54.95-18.65 54.25-21.38 53.55-24.1 52.12-25.53 50.7-26.95 49-27.48ZM53.75-3.05Q51.05 0.5 44.8 0.5 38.55 0.5 35.85-3.05 33.15-6.6 33.15-14.5 33.15-22.4 35.85-25.95 38.55-29.5 44.8-29.5 51.05-29.5 53.75-25.95 56.45-22.4 56.45-14.5 56.45-6.6 53.75-3.05ZM69.4-0.05L69.4-1.5 88.7-1.5 88.7-26.9 77.45-15.65 66.2-26.9 66.2 0 64.7-0.05 64.7-29 66.2-29 77.45-17.75 88.7-29 90.2-29 90.2 0 69.4-0.05ZM99.69 0L99.69-29 101.19-29 101.19 0 99.69 0ZM112.19 0L110.69 0 110.69-29 112.19-29 128.49-2.75 128.49-29 129.99-29 129.99 0 128.49 0 112.19-26.3 112.19 0ZM142.14 0L142.14-1.5 158.44-1.5 148.19-25.65 137.29 0 135.69 0 148.19-29.5 160.69 0 142.14 0ZM162.64-29L185.14-29 185.14-27.5 174.64-27.5 174.64 0 173.14 0 173.14-27.5 162.64-27.5 162.64-29ZM190.88 0L190.88-29 192.38-29 192.38 0 190.88 0ZM203.38 0L201.88 0 201.88-29 203.38-29 219.68-2.75 219.68-29 221.18-29 221.18 0 219.68 0 203.38-26.3 203.38 0ZM244.68-19.5L242.33-19.5 248.98-25.05Q246.78-28 241.08-28L241.08-28Q238.58-28 236.88-27.48 235.18-26.95 233.75-25.53 232.33-24.1 231.63-21.38 230.93-18.65 230.93-14.5 230.93-10.35 231.63-7.63 232.33-4.9 233.75-3.48 235.18-2.05 236.88-1.53 238.58-1 241.08-1L241.08-1Q246.73-1 248.93-3.9L248.93-3.9 248.93-12.75 250.43-12.75 250.43 0.45Q250.43 10 241.68 10L241.68 10 235.83 10 235.83 8.5 241.68 8.5Q245.43 8.5 247.18 6.53 248.93 4.55 248.93-1L248.93-1 248.93-1.75Q246.23 0.5 241.08 0.5L241.08 0.5Q234.83 0.5 232.13-3.05 229.43-6.6 229.43-14.5 229.43-22.4 232.13-25.95 234.83-29.5 241.08-29.5L241.08-29.5Q248.33-29.5 250.93-24.75L250.93-24.75 244.68-19.5ZM270.17-29L292.67-29 292.67-27.5 282.17-27.5 282.17 0 280.67 0 280.67-27.5 270.17-27.5 270.17-29ZM316.42-29L316.42 0 314.92 0 314.92-14.5 299.92-14.5 299.92 0 298.42 0 298.42-29 299.92-29 299.92-16 314.92-16 314.92-29 316.42-29ZM344.22-3.95L345.32-2.95Q342.57 0.5 336.32 0.5 330.07 0.5 327.37-3.05 324.67-6.6 324.67-14.5 324.67-22.4 327.37-25.95 330.07-29.5 336.32-29.5L336.32-29.5Q343.57-29.5 346.17-24.75L346.17-24.75 333.92-14.5 331.57-14.5 344.22-25.05Q342.02-28 336.32-28L336.32-28Q333.82-28 332.12-27.48 330.42-26.95 328.99-25.53 327.57-24.1 326.87-21.38 326.17-18.65 326.17-14.5 326.17-10.35 326.87-7.63 327.57-4.9 328.99-3.48 330.42-2.05 332.12-1.53 333.82-1 336.32-1L336.32-1Q342.02-1 344.22-3.95L344.22-3.95ZM364.06-35L389.06-35 389.06-33.5 377.31-33.5 377.31 0 375.81 0 375.81-33.5 364.06-33.5 364.06-35ZM412.86-3.95L413.96-2.95Q411.21 0.5 404.96 0.5 398.71 0.5 396.01-3.05 393.31-6.6 393.31-14.5 393.31-22.4 396.01-25.95 398.71-29.5 404.96-29.5L404.96-29.5Q412.21-29.5 414.81-24.75L414.81-24.75 402.56-14.5 400.21-14.5 412.86-25.05Q410.66-28 404.96-28L404.96-28Q402.46-28 400.76-27.48 399.06-26.95 397.64-25.53 396.21-24.1 395.51-21.38 394.81-18.65 394.81-14.5 394.81-10.35 395.51-7.63 396.21-4.9 397.64-3.48 399.06-2.05 400.76-1.53 402.46-1 404.96-1L404.96-1Q410.66-1 412.86-3.95L412.86-3.95ZM423.41-3.05Q420.71-6.6 420.71-14.5 420.71-22.4 423.41-25.95 426.11-29.5 432.36-29.5 438.61-29.5 441.36-26.05L441.36-26.05 440.26-25.05Q438.06-28 432.36-28L432.36-28Q429.86-28 428.16-27.48 426.46-26.95 425.03-25.53 423.61-24.1 422.91-21.38 422.21-18.65 422.21-14.5 422.21-10.35 422.91-7.63 423.61-4.9 425.03-3.48 426.46-2.05 428.16-1.53 429.86-1 432.36-1L432.36-1Q438.06-1 440.26-3.95L440.26-3.95 441.36-2.95Q438.61 0.5 432.36 0.5 426.11 0.5 423.41-3.05ZM466.81-29L466.81 0 465.31 0 465.31-14.5 450.31-14.5 450.31 0 448.81 0 448.81-29 450.31-29 450.31-16 465.31-16 465.31-29 466.81-29Z" opacity="1" transform="matrix(1,0,0,1,0,0)" fill="#08c076" class="undefined-text-1" data-fill-palette-color="secondary" id="text-1"></path></svg></g></svg></g></svg></g></svg></g><g transform="matrix(1,0,0,1,0,0.45543520546317495)"><svg viewBox="0 0 177.5676824499676 182.17408218527228" height="182.17408218527228" width="177.5676824499676"><g><svg xmlns="http://www.w3.org/2000/svg" xmlns:xlink="http://www.w3.org/1999/xlink" version="1.1" x="0" y="0" viewBox="5.637740380011009 5.999 87.72526144485512 90.001" enable-background="new 0 0 100 100" xml:space="preserve" height="182.17408218527228" width="177.5676824499676" class="icon-icon-0" data-fill-palette-color="accent" id="icon-0"><g fill="#08c076" data-fill-palette-color="accent"><path d="M58.203 96H40.796c-2.211 0-4.011-1.8-4.011-4.011v-7.236c0-0.358-0.744-0.91-1.94-1.438l-0.194-0.09c-2.285-1.021-4.509-2.359-6.563-3.955-0.524-0.407-1.227-0.518-1.633-0.281l-6.016 3.473c-2.092 1.207-4.493 0.42-5.558-1.424L6.177 65.962c-0.536-0.928-0.678-2.008-0.401-3.043 0.278-1.036 0.941-1.901 1.87-2.437l0.938 1.286L7.787 60.4l0.414-0.238 0.912 1.301L8.32 60.094l4.765-2.75c1.446-0.84 1.446-0.84 1.32-1.739-0.201-1.366-0.29-2.776-0.29-4.503v-0.203c0-1.726 0.089-3.136 0.281-4.435l0.013-0.094c0.122-0.874 0.122-0.874-1.377-1.743l-4.709-2.719 0.696-1.425-0.79 1.371-0.44-0.254 0.699-1.423-0.843 1.34c-1.914-1.105-2.573-3.563-1.467-5.478l8.704-15.076c0.714-1.238 2.046-2.006 3.476-2.006 0.701 0 1.394 0.186 2.003 0.537l6.111 3.528c0.409 0.223 1.1 0.11 1.617-0.292 2.052-1.594 4.277-2.933 6.612-3.979l0.145-0.066c1.196-0.528 1.94-1.079 1.94-1.438v-7.236c0-2.212 1.8-4.012 4.011-4.012h17.407c2.212 0 4.011 1.8 4.011 4.012v7.236c0 0.358 0.745 0.909 1.942 1.438l0.171 0.079c2.323 1.042 4.538 2.376 6.586 3.966 0.516 0.401 1.205 0.513 1.616 0.292l6.083-3.512c2.022-1.147 4.446-0.383 5.508 1.451l8.703 15.077c1.104 1.916 0.446 4.373-1.469 5.479l-4.01 2.316-0.901-1.308 0.794 1.369-1.223 0.707c-1.544 0.895-1.544 0.895-1.418 1.795l0.016 0.116c0.188 1.314 0.272 2.698 0.272 4.387L84.884 51l0.001 0.102c0 1.72-0.088 3.123-0.277 4.413l-0.001 0.016c-0.136 0.975-0.136 0.975 1.362 1.844l1.269 0.732-0.692 1.426 0.794-1.368 3.341 1.929-0.698 1.425 0.79-1.372 0.605 0.351c0.905 0.521 1.569 1.387 1.846 2.423 0.278 1.035 0.136 2.115-0.399 3.043L84.12 81.037c-0.715 1.238-2.048 2.006-3.478 2.006-0.701 0-1.394-0.186-2.003-0.537l-6.084-3.513c-0.436-0.252-1.119-0.13-1.642 0.275-2.041 1.585-4.247 2.915-6.558 3.954l-0.227 0.103c-1.171 0.518-1.916 1.069-1.916 1.428v7.236C62.214 94.2 60.415 96 58.203 96zM36.123 80.419c1.643 0.727 3.827 1.965 3.827 4.334v7.236c0 0.466 0.379 0.847 0.846 0.847h17.407c0.467 0 0.848-0.381 0.848-0.847v-7.236c0-2.369 2.185-3.607 3.827-4.334l0.129-0.06c2.102-0.939 4.107-2.147 5.965-3.589 1.52-1.182 3.647-1.392 5.153-0.525l2.512 1.449-0.679 1.437 0.785-1.373 1.374 0.793-0.645 1.454 0.791-1.37 1.941 1.121c0.173 0.092 0.303 0.123 0.438 0.123 0.304 0 0.586-0.163 0.736-0.425l8.703-15.074c0.113-0.196 0.144-0.424 0.084-0.643-0.058-0.218-0.197-0.4-0.394-0.514l-5.343-3.085c-2.381-1.38-3.312-2.363-2.978-4.897l0.016-0.122c0.174-1.184 0.253-2.446 0.253-4.018L81.72 51l0.001-0.102c0-1.571-0.079-2.834-0.247-3.974l-0.018-0.145c-0.353-2.541 0.576-3.529 2.926-4.891l1.577-0.911 0.891 1.312-0.792-1.369 3.04-1.755 0.884 1.316-0.789-1.371 0.523-0.303c0.46-0.266 0.6-0.785 0.366-1.19l-8.703-15.075c-0.227-0.393-0.754-0.542-1.157-0.31l-3.479 2.008-0.84-1.342 0.75 1.394-2.604 1.5v0c-1.617 0.865-3.599 0.585-5.077-0.565-1.854-1.439-3.859-2.646-5.96-3.586l-0.085-0.041c-1.696-0.75-3.876-1.988-3.876-4.354v-7.236c0-0.467-0.381-0.847-0.848-0.847H40.796c-0.467 0-0.846 0.379-0.846 0.847v7.236c0 2.369-2.184 3.607-3.827 4.333l-0.75-1.397 0.655 1.44c-2.139 0.958-4.146 2.166-5.999 3.605-1.52 1.182-3.648 1.392-5.153 0.526l-2.513-1.451 0.679-1.436-0.785 1.374-3.413-1.971c-0.197-0.114-0.338-0.152-0.487-0.152-0.303 0-0.584 0.163-0.735 0.424L8.917 37.62c-0.113 0.196-0.143 0.425-0.084 0.643s0.199 0.4 0.394 0.514l5.34 3.083c2.408 1.396 3.334 2.386 2.971 4.977l-0.014 0.099c-0.167 1.133-0.245 2.396-0.245 3.964l0.001 0.125c-0.001 1.646 0.077 2.909 0.245 4.052l0.014 0.107c0.362 2.573-0.565 3.562-2.921 4.929L9.285 63.19c-0.253 0.146-0.393 0.329-0.452 0.547-0.059 0.219-0.029 0.446 0.084 0.642l8.705 15.076c0.228 0.396 0.756 0.541 1.157 0.311l3.479-2.009 0.841 1.341-0.73-1.405 2.578-1.485c0.553-0.32 1.282-0.511 2.039-0.511 1.072 0 2.153 0.382 3.044 1.074 1.844 1.434 3.839 2.636 5.931 3.574l0.087 0.041-0.129 0.271-0.434 1.211L36.123 80.419z" fill="#08c076" data-fill-palette-color="accent"></path></g><g fill="#08c076" data-fill-palette-color="accent"><path d="M49.5 78.996c-15.382 0-27.896-12.513-27.896-27.895 0-15.382 12.514-27.896 27.896-27.896s27.896 12.514 27.896 27.896C77.396 66.483 64.882 78.996 49.5 78.996zM49.5 26.37c-13.637 0-24.731 11.095-24.731 24.732 0 13.637 11.094 24.731 24.731 24.731 13.638 0 24.732-11.095 24.732-24.731C74.232 37.464 63.138 26.37 49.5 26.37z" fill="#08c076" data-fill-palette-color="accent"></path></g><path fill-rule="evenodd" clip-rule="evenodd" d="M60.46 62.594l-2.454-2.454 8.588-8.587-8.588-8.589 2.454-2.454 11.042 11.043L60.46 62.594zM44.735 61.963l7.537-22.557h3.471l-7.537 22.557H44.735zM39.529 61.726L28.487 50.685l11.042-11.042 2.454 2.454-8.588 8.588 8.588 8.588L39.529 61.726z" fill="#08c076" data-fill-palette-color="accent"></path></svg><g></g></g></svg></g></svg></g></svg><rect width="395.52" height="114.03416867610856" fill="none" stroke="none" visibility="hidden"></rect></g></svg></g></svg>